<svg width="328" height="96" fill="none" xmlns="http://www.w3.org/2000/svg"><path fill-rule="evenodd" clip-rule="evenodd" d="M21.09 30.54l-3.9.46v8l3.06-.36L16 80h8.02l4.35-42.31 10.15-1.2-2.14 20.9-5.16.61v8l4.32-.5L34.05 80h8.02l1.6-15.46 10.14-1.19L52.1 80h8.02l1.81-17.6 3.39-.4v-8l-2.55.3L66.7 16h-8.03l-4.03 39.25-10.15 1.2 2.14-20.9 4.64-.55v-8l-3.8.45L48.65 16h-8.02l-1.27 12.4-10.15 1.19L30.6 16h-8.03l-1.5 14.54z" fill="#32B543"/><path d="M88.2 30.02h12.05c5.19 0 9.1.74 11.76 2.24 2.69 1.49 4.03 4.08 4.03 7.78 0 2.31-.58 4.26-1.74 5.82a7.5 7.5 0 01-4.98 2.92v.28c1.46.26 2.78.74 3.98 1.45a6.95 6.95 0 012.8 2.97c.7 1.27 1.06 2.95 1.06 5.04 0 3.62-1.29 6.44-3.86 8.46-2.54 2.01-6.03 3.02-10.48 3.02H88.21V30.02zm7.18 16.3h5.82c2.84 0 4.78-.46 5.82-1.35 1.09-.9 1.63-2.22 1.63-3.98 0-1.79-.66-3.08-1.96-3.86-1.27-.79-3.29-1.18-6.05-1.18h-5.26v10.36zm0 5.76v11.93h6.5c2.9 0 4.92-.56 6.04-1.68a5.95 5.95 0 001.74-4.48c0-1.72-.6-3.1-1.8-4.15-1.15-1.08-3.26-1.62-6.32-1.62h-6.16zm41.44-13c3.92 0 6.89.87 8.9 2.58 2.06 1.72 3.08 4.37 3.08 7.96V70h-4.98l-1.4-4.2h-.22a13.73 13.73 0 01-4.15 3.64c-1.45.75-3.43 1.12-5.93 1.12-2.73 0-4.99-.77-6.78-2.3-1.8-1.53-2.69-3.9-2.69-7.1 0-3.14 1.14-5.5 3.42-7.06 2.31-1.57 5.8-2.45 10.47-2.64l5.26-.16v-1.52c0-1.9-.46-3.26-1.4-4.08-.93-.86-2.24-1.3-3.92-1.3-1.53 0-3 .23-4.42.68-1.38.45-2.76.97-4.14 1.57l-2.24-4.93a24.84 24.84 0 0111.14-2.63zm4.98 16.58l-3.7.12c-3.1.1-5.24.65-6.43 1.62-1.2.93-1.8 2.2-1.8 3.8 0 1.46.42 2.5 1.24 3.14.86.6 1.98.9 3.36.9 2.05 0 3.79-.58 5.2-1.74 1.42-1.2 2.13-2.95 2.13-5.26v-2.58zm50.62-16.57c3.44 0 6.01.88 7.73 2.63 1.75 1.75 2.63 4.6 2.63 8.51V70h-7.06V51.58c0-4.52-1.71-6.78-5.15-6.78-2.46 0-4.22.8-5.26 2.4-1.05 1.61-1.57 3.95-1.57 7V70h-7.06V51.58c0-4.52-1.73-6.78-5.2-6.78-2.58 0-4.35.9-5.32 2.69-.97 1.79-1.46 4.35-1.46 7.67V70h-7.05V39.65h5.43l1 3.97h.4a7.92 7.92 0 013.75-3.41 12.19 12.19 0 015.1-1.12c2.27 0 4.18.39 5.7 1.17a7.63 7.63 0 013.6 3.53h.55a8.3 8.3 0 013.92-3.58 12.96 12.96 0 015.32-1.12zm26.26-11.65v10.08a52 52 0 01-.34 6.1h.34a10.22 10.22 0 013.36-3.19c1.42-.9 3.27-1.34 5.54-1.34 3.51 0 6.35 1.32 8.51 3.97 2.2 2.65 3.3 6.56 3.3 11.7 0 5.23-1.1 9.17-3.3 11.82a10.74 10.74 0 01-8.68 3.98c-2.27 0-4.1-.41-5.48-1.23a11.6 11.6 0 01-3.25-2.86h-.5l-1.3 3.53h-5.26V27.44h7.06zm6.89 17.36c-2.54 0-4.32.77-5.32 2.3-1.01 1.53-1.53 3.88-1.57 7.05v.62c0 3.25.48 5.73 1.45 7.45 1.01 1.71 2.86 2.57 5.55 2.57 2.09 0 3.7-.86 4.81-2.57 1.12-1.76 1.68-4.26 1.68-7.5 0-3.33-.57-5.81-1.73-7.46a5.53 5.53 0 00-4.87-2.46zm48.21 9.97c0 5.04-1.3 8.94-3.92 11.7-2.61 2.73-6.16 4.09-10.64 4.09-2.76 0-5.23-.62-7.4-1.85a12.9 12.9 0 01-5.09-5.37c-1.23-2.36-1.84-5.21-1.84-8.57 0-5.04 1.28-8.9 3.86-11.6 2.61-2.72 6.16-4.08 10.64-4.08 2.8 0 5.28.61 7.45 1.85a12.54 12.54 0 015.1 5.32c1.23 2.31 1.84 5.15 1.84 8.5zm-21.67 0c0 3.2.56 5.7 1.68 7.45 1.16 1.75 3 2.63 5.54 2.63s4.37-.88 5.5-2.63c1.15-1.76 1.73-4.24 1.73-7.45s-.58-5.68-1.74-7.4c-1.12-1.71-2.97-2.57-5.54-2.57-2.5 0-4.33.86-5.5 2.58-1.11 1.71-1.67 4.18-1.67 7.39zm56.07 0c0 5.04-1.3 8.94-3.92 11.7-2.61 2.73-6.16 4.09-10.64 4.09-2.76 0-5.23-.62-7.4-1.85a12.9 12.9 0 01-5.09-5.37c-1.23-2.36-1.85-5.21-1.85-8.57 0-5.04 1.3-8.9 3.87-11.6 2.61-2.72 6.16-4.08 10.64-4.08 2.8 0 5.28.61 7.44 1.85a12.54 12.54 0 015.1 5.32c1.23 2.31 1.85 5.15 1.85 8.5zm-21.67 0c0 3.2.56 5.7 1.68 7.45 1.15 1.75 3 2.63 5.54 2.63s4.37-.88 5.49-2.63c1.16-1.76 1.73-4.24 1.73-7.45s-.57-5.68-1.73-7.4c-1.12-1.71-2.97-2.57-5.55-2.57-2.5 0-4.33.86-5.48 2.58-1.12 1.71-1.68 4.18-1.68 7.39z" fill="#000"/></svg>
